<svg xmlns="http://www.w3.org/2000/svg" viewBox="0 0 512 512">
  <defs>
    <linearGradient id="petal" x1="0" y1="0" x2="0" y2="1">
      <stop offset="0" stop-color="#ef5350"/>
      <stop offset="0.5" stop-color="#e53935"/>
      <stop offset="1" stop-color="#8e1414"/>
    </linearGradient>
    <linearGradient id="gloss" x1="0" y1="0" x2="0" y2="1">
      <stop offset="0" stop-color="#ffffff" stop-opacity="0.3"/>
      <stop offset="1" stop-color="#ffffff" stop-opacity="0"/>
    </linearGradient>
    <radialGradient id="core" cx="0.5" cy="0.42" r="0.75">
      <stop offset="0" stop-color="#2a2a2a"/>
      <stop offset="0.8" stop-color="#141414"/>
      <stop offset="1" stop-color="#0a0a0a"/>
    </radialGradient>
    
    <g id="petalUnit">
      <ellipse cx="0" cy="-150" rx="72" ry="126" fill="url(#petal)"/>
      <ellipse cx="0" cy="-200" rx="46" ry="52" fill="url(#gloss)"/>
    </g>
  </defs>

  
  <g transform="translate(256,256)">
    
    
    
    
  </g>

  
  <circle cx="256" cy="256" r="98" fill="url(#core)"/>
  <circle cx="256" cy="256" r="98" fill="none" stroke="#e53935" stroke-width="3" opacity="0.55"/>

  
  <path d="M 222 210 L 222 272 A 34 34 0 0 0 290 272 L 290 210" fill="none" stroke="#e53935" stroke-width="24" stroke-linecap="butt"/>

  
  <g stroke="#ffffff" stroke-width="9" fill="none" stroke-linecap="round" stroke-linejoin="round">
    
    <g transform="translate(112,112)">
      <circle r="30"/>
      <line x1="0" y1="-30" x2="0" y2="30"/>
      <line x1="-26" y1="-15" x2="26" y2="15"/>
      <line x1="-26" y1="15" x2="26" y2="-15"/>
      <circle r="6" fill="#ffffff" stroke="none"/>
    </g>
    
    <g transform="translate(400,112)">
      <circle r="28"/>
      <circle r="12"/>
      <line x1="0" y1="-40" x2="0" y2="-20"/>
      <line x1="0" y1="20" x2="0" y2="40"/>
      <line x1="-40" y1="0" x2="-20" y2="0"/>
      <line x1="20" y1="0" x2="40" y2="0"/>
    </g>
    
    <g transform="translate(112,400)">
      <path d="M -32 -20 Q -16 -28 0 -20 Q 16 -28 32 -20 L 32 18 Q 16 10 0 18 Q -16 10 -32 18 Z"/>
      <line x1="0" y1="-20" x2="0" y2="18"/>
    </g>
    
    <g transform="translate(400,400)">
      <circle r="30"/>
      <polyline points="0,-16 0,2 13,9"/>
    </g>
  </g>
</svg>